<?xml version="1.0" encoding="UTF-8"?>
<svg width="193px" height="33px" viewBox="0 0 193 33" version="1.1" xmlns="http://www.w3.org/2000/svg" xmlns:xlink="http://www.w3.org/1999/xlink">
    <!-- Generator: sketchtool 60.1 (101010) - https://sketch.com -->
    <title>5E9C144C-8681-4307-8791-699DEB905187</title>
    <desc>Created with sketchtool.</desc>
    <g id="Cuidadano" stroke="none" stroke-width="1" fill="none" fill-rule="evenodd">
        <g id="Home-principal" transform="translate(-135.000000, -61.000000)" fill="#FFFFFF" fill-rule="nonzero">
            <g id="blanco_logo" transform="translate(135.000000, 61.000000)">
                <path d="M173.808383,22.3875344 L173.700599,22.3875344 C173.236527,22.3875344 172.835329,22.6546534 172.640719,23.0434598 C172.643713,23.0375238 172.643713,23.0345559 172.646707,23.0286199 C172.646707,23.0286199 172.616766,23.0731397 172.586826,23.1621794 C172.58982,23.1562434 172.592814,23.1532754 172.595808,23.1473394 C172.58982,23.1592114 172.586826,23.1710833 172.580838,23.1859233 C172.583832,23.1799873 172.583832,23.1710833 172.586826,23.1651473 C172.479042,23.3847785 172.305389,23.6370575 172.212575,23.7646809 L172.212575,23.7646809 C171.326347,24.999364 169.883234,25.8393046 168.305389,25.8393046 C165.712575,25.8393046 163.48503,23.5776977 163.48503,21.010388 C163.48503,18.2353191 165.712575,16.1547594 168.305389,16.1547594 C169.98503,16.1547594 171.508982,17.0303159 172.377246,18.3985584 C172.458084,18.5261819 172.5,18.6033496 172.517964,18.6389654 C172.502994,18.6063176 172.488024,18.5677337 172.476048,18.5291499 C172.631737,18.995124 173.077844,19.3364427 173.601796,19.3364427 L173.649701,19.3364427 C174.302395,19.3364427 174.835329,18.8081408 174.835329,18.1611194 L174.835329,18.1047276 C174.835329,17.8257367 174.736527,17.5704897 174.571856,17.3716345 C173.329341,15.3741785 171.071856,14 168.308383,14 C164.056886,14 161,17.238075 161,21.0133559 C161,24.8420606 163.901198,28 168.308383,28 C171.371257,28 173.706587,26.4714861 174.847305,24.254399 L174.847305,24.254399 C174.943114,24.0852237 175,23.8893364 175,23.6815773 L175,23.5658257 C174.994012,22.9158363 174.461078,22.3875344 173.808383,22.3875344 Z" id="Path"></path>
                <path d="M192.993768,21.0358362 C192.993768,21.008959 192.996884,20.9850683 192.996884,20.9581911 C192.996884,17.2133106 189.859161,14 185.5,14 C181.137723,14 178,17.2103242 178,20.9581911 C178,24.7568259 180.978812,27.8895051 185.5,27.8895051 C187.572081,27.8895051 189.316992,27.2295222 190.603864,26.1514505 L190.603864,26.8353242 C190.603864,26.8412969 190.600748,26.8472696 190.600748,26.8532423 C190.600748,26.859215 190.603864,26.8651877 190.603864,26.8711604 L190.603864,26.8801195 L190.603864,26.8801195 C190.619443,27.5012799 191.146032,28 191.800374,28 C192.4516,28 192.981305,27.5012799 192.996884,26.8801195 L192.996884,26.8801195 L192.996884,26.8711604 C192.996884,26.8651877 193,26.859215 193,26.8532423 C193,26.8472696 192.996884,26.8412969 192.996884,26.8353242 L192.996884,21.0358362 L192.993768,21.0358362 Z M185.496884,25.7512799 C182.839011,25.7512799 180.551932,23.5085324 180.551932,20.9611775 C180.551932,18.2077645 182.839011,16.144198 185.496884,16.144198 C188.154757,16.144198 190.441839,18.2077645 190.441839,20.9611775 C190.444952,23.5085324 188.157873,25.7512799 185.496884,25.7512799 Z" id="Shape"></path>
                <path d="M158,15.1434026 C158,14.5137887 157.32987,14 156.5,14 C155.67013,14 155,14.5108188 155,15.1434026 C155,15.1493424 155.003896,15.1552821 155.003896,15.1612219 L155.003896,26.841748 C155.003896,26.8476877 155,26.8536275 155,26.8595672 C155,26.865507 155.003896,26.8714468 155.003896,26.8773865 L155.003896,26.8862961 L155.003896,26.8862961 C155.023377,27.5040305 155.681818,28 156.5,28 C157.318182,28 157.976623,27.5040305 157.996104,26.8862961 L157.996104,26.8862961 L157.996104,26.8773865 C157.996104,26.8714468 158,26.865507 158,26.8595672 C158,26.8536275 157.996104,26.8476877 157.996104,26.841748 L157.996104,15.1612219 C157.996104,15.1552821 158,15.1493424 158,15.1434026 Z" id="Path"></path>
                <path d="M151,20.3106961 C151,20.307725 151,20.3017827 151,20.2988115 C151,20.2780136 150.996815,20.2601868 150.996815,20.2393888 L150.996815,20.0611205 L150.987261,20.0611205 C150.863057,16.7185908 148.121019,14 144,14 C139.878981,14 137.140127,16.7185908 137.012739,20.0611205 L137,20.0611205 L137,26.8828523 C137,27.5008489 137.538217,28 138.197452,28 C138.856688,28 139.394904,27.4978778 139.394904,26.8828523 L139.394904,20.2928693 C139.394904,17.9783531 141.512739,15.9460951 143.996815,15.9460951 C146.477707,15.9460951 148.595541,17.9813243 148.595541,20.2988115 L148.595541,26.8828523 C148.595541,27.5008489 149.133758,28 149.792994,28 C150.452229,28 150.990446,27.4978778 150.990446,26.8828523 L150.990446,20.5810696 C150.990446,20.5721562 150.993631,20.5632428 150.993631,20.5543294 C150.993631,20.545416 150.990446,20.5394737 150.990446,20.5335314 L151,20.3106961 L151,20.3106961 Z" id="Path"></path>
                <path d="M82,20.9573081 C82,17.2121977 78.862966,14 74.5,14 C70.137034,14 67,17.2121977 67,20.9573081 C67,24.7554154 69.9772634,27.8881178 74.5,27.8881178 C76.5708726,27.8881178 78.3191315,27.2286015 79.6034412,26.1509989 L79.6034412,26.8340694 C79.6034412,26.8399579 79.6003687,26.8458465 79.6003687,26.851735 C79.6003687,26.8576236 79.6034412,26.8635121 79.6034412,26.8694006 L79.6034412,26.8782334 L79.6034412,26.8782334 C79.6188038,27.4994742 80.1472757,28 80.7986481,28 C81.4500205,28 81.9784924,27.4994742 81.993855,26.8782334 L81.993855,26.8782334 L81.993855,26.8694006 C81.993855,26.8635121 81.9969275,26.8576236 81.9969275,26.851735 C81.9969275,26.8458465 81.993855,26.8399579 81.993855,26.8340694 L81.993855,21.0309148 C82,21.0073607 82,20.9808623 82,20.9573081 Z M74.5,25.7476341 C71.8392052,25.7476341 69.5532569,23.5041009 69.5532569,20.9573081 C69.5532569,18.2044164 71.8392052,16.1404837 74.5,16.1404837 C77.1607948,16.1404837 79.4467431,18.2044164 79.4467431,20.9573081 C79.4467431,23.5041009 77.1607948,25.7476341 74.5,25.7476341 Z" id="Shape"></path>
                <path d="M63.8428343,25.8335947 C63.8428343,25.8335947 63.8396377,25.8335947 63.8396377,25.8335947 L63.0948322,25.8335947 C62.292488,25.8335947 61.4901438,25.3180678 61.4901438,23.7953262 L61.4901438,10.1979297 C61.4901438,10.18601 61.4933404,10.1740903 61.4933404,10.1621706 C61.4933404,10.1502509 61.4901438,10.1383312 61.4901438,10.1264115 L61.4901438,10.0906524 L61.4869473,10.0906524 C61.4453916,9.4827478 60.911561,9 60.2466702,9 C59.584976,9 59.0479489,9.4827478 59.0063932,10.0906524 L59,10.0906524 L59,23.9771016 C59,26.7871706 60.521577,28 62.8199254,28 L63.8428343,28 L63.8428343,27.9880803 C64.4821524,27.9880803 65,27.5053325 65,26.9093476 C64.9968034,26.3163425 64.4789558,25.8335947 63.8428343,25.8335947 Z" id="Path"></path>
                <path d="M98.3515053,13.1180417 C97.7743938,12.8387722 97.0780963,13.0714968 96.7926771,13.6424476 L91.5171259,24.2484805 L86.2070735,13.6424476 C85.9216542,13.0745998 85.2253567,12.8387722 84.6482453,13.1211447 C84.0711339,13.4035171 83.8358982,14.0923817 84.1213175,14.6633326 L90.4758161,27.3607833 C90.6734141,27.7517605 91.0748829,28 91.5171259,28 C91.5171259,28 91.5171259,28 91.5171259,28 C91.9593689,28 92.3639742,27.7517605 92.5584356,27.3576803 L98.8752966,14.6602296 C99.1669888,14.0892788 98.9286167,13.4004141 98.3515053,13.1180417 Z" id="Path"></path>
                <path d="M108.608287,14 C104.270418,14 101,17.0092359 101,21 C101,25.1435768 104.323017,28 109.081677,28 C111.191824,28 113.001848,27.4534005 114.459149,26.3719563 C114.60457,26.2573468 114.982044,25.9193955 114.982044,25.5549958 C114.982044,24.9231738 114.313728,24.279597 113.657788,24.279597 C113.301971,24.279597 113.128704,24.3471872 112.902838,24.4911839 C111.8292,25.1847187 110.650364,25.86356 109.143559,25.86356 C106.64356,25.86356 104.539601,24.6528128 104.010518,22.5398825 L103.831062,21.822838 L114.459149,21.822838 C115.381178,21.822838 116,21.2615449 116,20.4298908 C116.003083,17.9437448 113.99504,14 108.608287,14 Z M103.840345,19.7040302 C104.295171,17.4706129 106.266085,16.13644 108.499995,16.13644 C110.743186,16.13644 112.822393,17.5029387 113.178209,19.7040302 L103.840345,19.7040302 Z" id="Shape"></path>
                <path d="M126.149887,9 C125.734994,9 125.335581,8.76952428 125.13123,8.36299072 C124.837089,7.78360036 125.053825,7.06336373 125.617337,6.75926382 L132.317562,3.13567332 C132.877979,2.83157341 133.574629,3.05564703 133.86877,3.63823843 C134.162911,4.21762879 133.946175,4.93786542 133.382663,5.24196533 L126.682438,8.86555583 C126.512145,8.95838633 126.329468,9 126.149887,9 Z" id="Path"></path>
                <circle id="Oval" cx="13.5" cy="19.5" r="1.5"></circle>
                <path d="M14,33 C6.28025761,33 0,26.7368483 0,19.0415923 C0,13.4176632 3.35465245,8.37149293 8.54985565,6.1803118 C9.1281368,5.93445697 9.79658006,6.20489728 10.0390851,6.78265612 C10.2846991,7.36041496 10.0142127,8.02422299 9.4359316,8.27007781 C5.08638685,10.1047694 2.27581612,14.3334724 2.27581612,19.0415923 C2.27581612,25.4891351 7.53630913,30.7319892 14,30.7319892 C20.4636909,30.7319892 25.7241839,25.4860619 25.7241839,19.0415923 C25.7241839,14.2351305 22.8358872,9.97569566 18.3619809,8.18710181 C17.7805907,7.95353972 17.4976682,7.29280488 17.7308461,6.71197286 C17.964024,6.13114083 18.6262492,5.84840779 19.2107484,6.08196987 C24.5489674,8.21783366 28,13.3039553 28,19.0415923 C28,26.7399215 21.7197424,33 14,33 Z" id="Path"></path>
                <path d="M14.2350962,14 C13.5519231,14 13,13.46698 13,12.8089307 L13,1.19106933 C13,0.533019976 13.5519231,0 14.2350962,0 L18.7649038,0 C19.4480769,0 20,0.533019976 20,1.19106933 C20,1.84911868 19.4480769,2.38213866 18.7649038,2.38213866 L15.4735577,2.38213866 L15.4735577,12.8089307 C15.4701923,13.46698 14.9149038,14 14.2350962,14 Z" id="Path"></path>
                <path d="M14,26 C10.1396161,26 7,22.8597265 7,19 C7,15.1402735 10.1396161,12 14,12 C17.8603839,12 21,15.1402735 21,19 C21,22.8597265 17.8603839,26 14,26 Z M14,14.2201147 C11.3643106,14.2201147 9.22033159,16.3661226 9.22033159,19 C9.22033159,21.6369652 11.3643106,23.7798853 14,23.7798853 C16.6356894,23.7798853 18.7796717,21.6338774 18.7796717,19 C18.7827225,16.3661226 16.6356894,14.2201147 14,14.2201147 Z" id="Shape"></path>
                <path d="M46.9036329,28 C41.4428631,28 37,23.5139057 37,18 C37,12.4860943 41.4428631,8 46.9036329,8 C50.3764908,8 53.6397798,9.87424426 55.4181226,12.8911729 C55.7324761,13.4232164 55.5588332,14.1124547 55.0319168,14.429867 C54.5050004,14.7472793 53.8224042,14.5719468 53.5110445,14.0399033 C52.1308829,11.7001209 49.5980916,10.2460701 46.9036329,10.2460701 C42.6673449,10.2460701 39.2214316,13.7255139 39.2214316,18.003023 C39.2214316,22.280532 42.6673449,25.7599758 46.9036329,25.7599758 C49.8855006,25.7599758 52.624867,23.9945586 53.8792872,21.2587666 C54.1367577,20.6964933 54.7954032,20.4546554 55.3552519,20.7116082 C55.9121067,20.971584 56.154608,21.6366385 55.8971375,22.1989117 C54.2774684,25.7237001 50.7507212,28 46.9036329,28 Z" id="Path"></path>
                <g id="Group" transform="translate(119.000000, 10.000000)">
                    <path d="M14.9510204,11.5335938 C14.9510204,15.4909375 11.6295918,18.7120313 7.54897959,18.7120313 C3.46836735,18.7120313 0.146938776,15.4909375 0.146938776,11.5335938 L0.146938776,1.32703125 C0.146938776,0.7184375 0.655102041,0.225625 1.28265306,0.225625 C1.91020408,0.225625 2.41836735,0.7184375 2.41836735,1.32703125 L2.41836735,11.5335938 C2.41836735,14.2767188 4.72040816,16.5092188 7.54897959,16.5092188 C10.377551,16.5092188 12.6795918,14.2767188 12.6795918,11.5335938 L12.6795918,1.32703125 C12.6795918,0.7184375 13.1877551,0.225625 13.8153061,0.225625 C14.4428571,0.225625 14.9510204,0.7184375 14.9510204,1.32703125 L14.9510204,11.5335938" id="Path"></path>
                </g>
            </g>
        </g>
    </g>
</svg>