<?xml version="1.0" encoding="utf-8"?>
<!-- Generator: Adobe Illustrator 24.0.2, SVG Export Plug-In . SVG Version: 6.00 Build 0)  -->
<svg version="1.1" id="Capa_1" xmlns="http://www.w3.org/2000/svg" xmlns:xlink="http://www.w3.org/1999/xlink" x="0px" y="0px"
	 viewBox="0 0 800 320" style="enable-background:new 0 0 800 320;" xml:space="preserve">
<style type="text/css">
	.st0{fill:#6A86C2;}
	.st1{fill:#020203;}
</style>
<g>
	<path class="st0" d="M187.34,221.97c6.42,0,12.84,0,19.68,0c-3.17,9.11-7.95,16.96-14.02,24.05
		c-12.03,14.06-27.12,22.98-45.3,26.63c-0.52,0.1-0.97,0.5-1.46,0.76c-9.73,0-19.46,0-29.19,0c-7.88-2.39-15.91-4.31-23.21-8.36
		c-24-13.31-37.86-33.79-42.43-60.58c-6.22-36.49,8.57-71.12,36.86-89.22c41.68-26.66,98.53-9.07,117.84,36.52
		c1.27,2.99,0.93,3.98-2.51,3.83c-5.7-0.25-11.42-0.14-17.13-0.18c0.56-1.94-0.82-3.25-1.64-4.67
		c-21.37-36.65-75.08-40.24-101.76-6.67c-14.07,17.71-17.11,38.09-13.33,59.87c5.21,30.05,31.26,52.54,61.74,52.15
		C156.52,255.79,175.4,244.27,187.34,221.97z"/>
	<path class="st1" d="M187.34,221.97c-11.93,22.31-30.82,33.82-55.85,34.14c-30.48,0.39-56.53-22.1-61.74-52.15
		c-3.78-21.79-0.74-42.16,13.33-59.87c26.67-33.57,80.38-29.98,101.76,6.67c0.83,1.42,2.2,2.73,1.64,4.67
		c-2.29-0.01-4.58-0.06-6.87-0.01c-8.01,0.19-14.56-1.42-21.46-7.13c-22.08-18.26-61.72-10.1-70.11,26.69
		c-4.6,20.15-0.95,38.86,15.62,52.98c17.37,14.8,44.16,13.04,59.84-3.56c1.86-1.97,3.6-2.8,6.25-2.69
		C175.61,221.94,181.48,221.9,187.34,221.97z"/>
	<path class="st1" d="M160.81,188.66c0.27,4.77-0.56,9.27-2.05,13.61c-4.5,13.14-15.82,20.53-29.76,19.6
		c-12.52-0.83-23.09-10.63-25.66-23.84c-1.38-7.11-1.36-14.18,0.61-21.21c3.91-13.96,14.85-22.15,29.06-21.73
		c13.21,0.39,24.19,10.14,26.94,23.92C160.59,182.24,161.06,185.49,160.81,188.66z M149.93,188.91c-0.12-1.88-0.16-3.88-0.38-5.86
		c-1.03-9.15-7.62-16.28-15.55-16.88c-10.33-0.78-17.25,4.17-19.67,14.42c-1.29,5.47-1.26,11.07,0.16,16.55
		c2.3,8.85,8.68,13.93,17.19,13.91c8.52-0.03,14.74-5.16,17.21-13.95C149.65,194.42,149.48,191.7,149.93,188.91z"/>
	<path class="st1" d="M127.42,87.01c-2.43,0-4.86-0.02-7.29,0.01c-1.59,0.01-3.23,0.08-4.2-1.5c-1.15-1.87,0.16-3.29,1.14-4.62
		c6.08-8.29,12.13-16.61,18.36-24.79c8.57-11.26,4.21-9.1,18.39-9.28c8.15-0.1,16.31-0.08,24.46,0.03c1.68,0.02,4.08-1.14,4.91,1.27
		c0.85,2.44-1.54,3.45-3.01,4.66c-11.14,9.17-22.29,18.34-33.53,27.39C136.79,88.12,140.42,86.93,127.42,87.01z"/>
	<path class="st1" d="M419.15,183.27c0-2.7-0.01-5.81,0-8.93c0-1-0.12-2.07,1.41-2.09c1.51-0.01,1.46,1.02,1.46,2.04
		c0,9.29,0,18.58,0,27.87c0,0.84-0.23,2.31-1.11,1.74c-3.05-2-5.47,0.82-8.2,0.69c-0.57-0.03-1.15,0.03-1.71-0.07
		c-3.84-0.68-6.18-3.2-6.91-6.76c-1.01-4.94-1.49-10.19,2.73-14.01c3.04-2.75,6.77-2.69,10.29-0.42
		C417.61,183.66,418.07,183.99,419.15,183.27z M419.34,193.21c-0.26-1.27-0.46-2.37-0.72-3.47c-0.73-3.04-2.44-5.33-5.72-5.37
		c-3.53-0.04-5.13,2.38-5.93,5.61c-0.64,2.59-0.45,5.08,0.29,7.55c0.8,2.69,2.57,4.48,5.47,4.56c2.77,0.08,4.48-1.69,5.44-4.05
		C418.81,196.5,418.98,194.77,419.34,193.21z"/>
	<path class="st1" d="M705.23,184.64c0-3.57-0.02-6.94,0.01-10.32c0.01-0.92-0.28-2.1,1.35-2.05c1.57,0.04,1.35,1.17,1.36,2.12
		c0.01,9.28-0.02,18.56,0.04,27.83c0.01,1.62-1.55,2.43-1.94,1.67c-1.67-3.26-2.9-0.48-4.16,0.07c-5.26,2.31-11.02-0.97-12-7.2
		c-0.4-2.5-0.4-5.18,0.04-7.67C691.21,181.81,697.96,179.79,705.23,184.64z M705.22,193.13c-0.15-1.99-0.49-3.94-1.52-5.7
		c-1.16-2-2.84-3.23-5.18-3.08c-2.32,0.14-4.05,1.46-4.9,3.58c-1.43,3.56-1.46,7.19,0.11,10.75c0.94,2.15,2.66,3.35,4.97,3.43
		c2.35,0.08,4.02-1.18,5.09-3.24C704.72,197.07,705.15,195.14,705.22,193.13z"/>
	<path class="st1" d="M508.18,184.5c1.58-0.89,2.61-1.61,3.73-2.08c4.05-1.71,8.7-0.11,10.53,3.82c2.16,4.63,2.17,9.39-0.15,13.99
		c-1.71,3.38-5.76,5.06-9.41,4.24c-1.96-0.44-3.59-3.4-6.1-0.56c-0.65,0.74-1.5-0.59-1.49-1.77c0.03-9.26,0.02-18.52,0.02-27.78
		c0-1-0.07-2.08,1.43-2.07c1.49,0.01,1.43,1.1,1.44,2.09C508.19,177.6,508.18,180.83,508.18,184.5z M520.73,192.57
		c-0.11-0.69-0.22-2.11-0.58-3.47c-0.76-2.92-2.64-4.79-5.74-4.75c-2.91,0.04-4.7,1.92-5.5,4.57c-0.96,3.2-0.99,6.43,0.46,9.56
		c1.05,2.26,2.75,3.67,5.29,3.6c2.51-0.07,4.19-1.43,5.16-3.78C520.49,196.67,520.67,195,520.73,192.57z"/>
	<path class="st1" d="M463.8,184.49c0-3.75-0.02-6.87,0.01-10c0.01-0.92-0.31-2.09,1.24-2.22c1.57-0.13,1.46,0.96,1.46,1.94
		c0.01,9.28,0,18.55,0.01,27.83c0,1.02-0.34,2.65-1.35,1.86c-2.58-2.02-4.35,0.27-6.47,0.6c-0.56,0.09-1.14,0.1-1.7,0.1
		c-4.26-0.07-6.91-2.32-8.23-6.22c-1.77-5.22-0.52-12.35,2.76-14.76c3.49-2.57,7.13-2.5,10.67,0.09
		C462.52,183.94,462.92,184.06,463.8,184.49z M451.11,193.24c0.14,1.12,0.21,2.26,0.44,3.36c0.66,3.05,2.29,5.34,5.62,5.46
		c3.36,0.12,5-2.15,5.95-5.1c1.01-3.13,0.77-6.16-0.64-9.09c-1.06-2.22-2.82-3.64-5.35-3.53c-2.49,0.11-4.22,1.54-5.08,3.89
		C451.47,189.83,451.02,191.48,451.11,193.24z"/>
	<path class="st1" d="M578.03,176.58c0.04,0.85,0.21,1.72,0.1,2.55c-0.34,2.48,0.32,3.83,3.15,3.33c0.74-0.13,1.82-0.22,1.85,1.08
		c0.02,1.2-0.91,1.45-1.76,1.29c-3.23-0.6-3.35,1.28-3.24,3.67c0.13,2.99,0.03,6,0.03,9c0,2.66,0.33,5.08,3.96,4.45
		c1.01-0.18,1.27,0.24,1.36,1.03c0.1,0.91-0.55,1.18-1.24,1.45c-3.21,1.25-6.56-0.75-6.74-4.27c-0.19-3.7-0.21-7.43-0.02-11.13
		c0.14-2.81-0.26-4.05-3.68-4.43c-5.23-0.57-8.78,1.33-9.14,6.5c-0.24,3.41-0.06,6.85-0.11,10.28c-0.02,1.19,0.49,2.72-1.66,2.66
		c-1.83-0.04-1.49-1.32-1.49-2.41c-0.01-5.71,0.02-11.43-0.02-17.14c-0.01-1.29,0.67-2.9,1.62-1.9c2.28,2.41,3.7,0.22,5.24-0.51
		c2.34-1.11,4.02,1.43,6.57,0.58c2.05-0.68,2.87-1.08,2.64-3.16C575.24,177.7,575.66,176.32,578.03,176.58z"/>
	<path class="st1" d="M499.59,195.44c0,1.43,0,2.85,0,4.28c0,3.34,0.01,3.26-3.29,2.64c-0.59-0.11-1.34,0.76-2.05,1.13
		c-3.17,1.65-6.35,1.7-9.26-0.44c-2.19-1.61-2.6-4.06-1.95-6.56c0.92-3.54,3.76-4.79,7-5.38c0.98-0.18,2.03-0.02,2.97-0.27
		c1.24-0.34,3.43,1.22,3.53-1.57c0.08-2.21-0.78-3.85-2.97-4.66c-2.2-0.81-4.21,0.06-6.25,0.61c-0.63,0.17-1.35,0.99-1.78,0.13
		c-0.33-0.65-0.44-1.78,0.58-2.22c3.09-1.33,6.28-1.91,9.54-0.66c2.59,0.99,3.54,3.1,3.65,5.73c0.1,2.41,0.27,4.83,0.41,7.24
		C499.67,195.43,499.63,195.44,499.59,195.44z M496.57,195.45c0.17-1.49-0.08-2.29-2.27-2.15c-5.48,0.34-8.13,1.72-8.15,4.89
		c-0.02,3.03,1.95,3.9,4.48,3.9C494.12,202.09,496.54,199.38,496.57,195.45z"/>
	<path class="st1" d="M602.63,195.88c0,1.14,0,2.28,0,3.42c0,3.54,0.02,3.46-3.13,3.03c-0.64-0.09-1.39,0.77-2.12,1.14
		c-3.17,1.59-6.35,1.76-9.28-0.41c-2.18-1.62-2.61-4.04-1.96-6.56c0.98-3.76,4.01-4.91,7.41-5.46c0.84-0.14,1.74,0,2.55-0.21
		c1.18-0.31,3.09,1.07,3.44-1.21c0.33-2.15-0.37-3.88-2.56-4.87c-2.18-0.98-4.18-0.11-6.26,0.29c-0.72,0.14-1.68,1.81-2.24-0.13
		c-0.35-1.21,0.47-1.77,1.46-2.23c6.78-3.18,12.45,0.22,12.68,7.63C602.68,192.17,602.63,194.02,602.63,195.88z M597.14,193.4
		c-5.73,0.24-8.18,1.87-7.94,5.19c0.2,2.79,2.17,3.49,4.47,3.52c3.66,0.06,6.05-2.92,6-6.82
		C599.63,193.09,598.63,192.97,597.14,193.4z"/>
	<path class="st1" d="M238.97,204.66c-6.46-0.19-11.51-2.14-14.2-8.14c-2.66-5.95-1.67-13.82,2.42-18.08
		c4.53-4.73,10.14-5.24,16.21-3.98c1.45,0.3,1.97,0.91,1.58,2.32c-0.5,1.82-1.68,0.48-2.36,0.37c-8.85-1.37-14.35,1.67-15.75,8.87
		c-2.03,10.41,4.31,16.99,14.82,15.57c0.97-0.13,2.85-2.17,3.3,0.52c0.38,2.24-1.79,1.76-2.98,2.13
		C240.95,204.57,239.77,204.56,238.97,204.66z"/>
	<path class="st1" d="M443.31,195.25c0,2.28-0.02,4.56,0.01,6.84c0.02,1.04-0.33,2.66-1.32,1.8c-2.42-2.11-4.11-0.2-6.11,0.38
		c-4.17,1.19-8.08-0.63-9.03-4.14c-1.12-4.15,0.84-7.38,5.41-8.62c1.49-0.41,3.1-0.4,4.63-0.67c1.22-0.22,3.2,0.86,3.31-1.47
		c0.09-1.87-0.32-3.68-2.39-4.6c-2.16-0.96-4.18-0.24-6.26,0.23c-0.76,0.17-1.8,1.61-2.32-0.21c-0.36-1.25,0.59-1.85,1.58-2.16
		c6.31-1.97,12.98-0.98,12.41,7.9c-0.1,1.56-0.01,3.14-0.01,4.71C443.24,195.25,443.27,195.25,443.31,195.25z M437.53,193.42
		c-5.3,0.23-8,1.96-7.79,5c0.21,2.91,2.25,3.75,4.78,3.67c3.51-0.11,5.67-2.79,5.81-6.62C440.42,192.91,438.96,193.15,437.53,193.42
		z"/>
	<path class="st1" d="M635.54,195.96c0,1.43,0,2.85,0,4.28c0,3.12,0,3.11-3.1,2.28c-1.33-0.35-1.91,0.99-2.95,1.35
		c-3.32,1.18-6.58,1.3-9.14-1.36c-2.21-2.3-2.24-5.26-0.57-7.92c1.86-2.96,5.05-3.34,8.23-3.75c1.68-0.21,4.78,1.44,4.33-2.56
		c-0.37-3.36-2.7-4.07-5.51-3.96c-1.12,0.05-2.21,0.53-3.33,0.75c-0.77,0.15-1.79,1.56-2.25-0.29c-0.32-1.3,0.74-1.72,1.64-2.13
		c6.86-3.12,12.4,0.26,12.63,7.73C635.59,192.25,635.54,194.11,635.54,195.96z M629.9,193.42c-5.64,0.24-8.25,1.96-7.93,5.2
		c0.27,2.71,2.2,3.48,4.52,3.5c3.66,0.04,6.03-2.93,5.94-6.84C632.38,193.12,631.4,192.95,629.9,193.42z"/>
	<path class="st1" d="M316.39,193.35c-0.07-6.87,3.81-11.44,9.89-11.64c6.11-0.21,10.48,4.62,10.45,11.57
		c-0.03,6.86-4,11.29-10.15,11.32C320.42,204.63,316.46,200.26,316.39,193.35z M333.48,193.82c0.23-5.7-3.03-9.88-7.41-9.5
		c-4.06,0.35-6.74,4.29-6.51,9.58c0.21,4.82,3.13,8.25,6.99,8.23C330.39,202.09,333.29,198.62,333.48,193.82z"/>
	<path class="st1" d="M685.92,193.06c0.05,7-3.73,11.42-9.86,11.54c-6.23,0.13-10.25-4.17-10.33-11.04
		c-0.08-7.23,3.8-11.82,10.04-11.85C681.85,181.68,685.87,186.18,685.92,193.06z M668.77,193.44c0.08,4.97,3.08,8.68,7.04,8.69
		c4.04,0.01,7.17-4.04,7.08-9.14c-0.1-4.94-3.16-8.7-7.09-8.7C671.69,184.3,668.69,188.21,668.77,193.44z"/>
	<path class="st1" d="M732.86,193.26c-0.02,6.96-3.88,11.31-10.07,11.34c-6.32,0.03-10.39-4.59-10.26-11.65
		c0.12-6.77,4.35-11.37,10.35-11.25C728.93,181.83,732.87,186.39,732.86,193.26z M715.68,193.13c-0.05,5.18,3.07,9.1,7.16,9.01
		c4-0.09,6.79-3.7,6.84-8.84c0.06-5.28-2.97-9.11-7.11-9C718.62,184.4,715.74,188.08,715.68,193.13z"/>
	<path class="st1" d="M536.83,193.51c-0.08-8.16,5.08-13.2,11.59-11.32c3.9,1.13,7.16,6.56,6.41,10.46
		c-0.34,1.74-1.59,1.33-2.62,1.35c-3.13,0.05-6.28,0.17-9.4-0.02c-3.01-0.19-2.95,1.37-2.29,3.42c1.23,3.82,4.59,5.22,9.39,4.26
		c0.94-0.19,2.54-1.96,3.11,0.18c0.55,2.07-1.47,2.03-2.77,2.36C542.14,206.19,536.91,202.01,536.83,193.51z M545.86,191.99
		c1.69-1.42,4.9,1.86,5.52-1.92c0.45-2.75-2.58-5.75-5.21-5.77c-2.72-0.02-6.3,3.17-5.86,5.78
		C540.94,193.83,544.15,190.58,545.86,191.99z"/>
	<path class="st1" d="M269.47,193.37c0,2.85-0.06,5.7,0.03,8.55c0.04,1.31-0.75,2.95-1.55,1.91c-2.02-2.63-3.19-0.49-4.72,0.16
		c-5.38,2.28-10.42-0.72-10.63-6.46c-0.16-4.27-0.04-8.55-0.03-12.82c0-1.09-0.3-2.39,1.55-2.28c1.69,0.1,1.13,1.37,1.14,2.21
		c0.06,3.7-0.01,7.41,0.04,11.12c0.04,3.28,1.01,6,4.84,6.34c3.23,0.29,6.02-2.42,6.24-6.24c0.21-3.69,0.04-7.41,0.08-11.11
		c0.01-1.02-0.45-2.39,1.48-2.33c1.83,0.06,1.5,1.34,1.51,2.42C269.49,187.67,269.47,190.52,269.47,193.37z"/>
	<path class="st1" d="M398.45,193.71c0,2.85-0.13,5.71,0.05,8.54c0.12,1.83-1.56,2.26-1.93,1.6c-1.55-2.81-2.72-0.65-4.06-0.03
		c-5.38,2.52-10.78-0.48-11.08-6.34c-0.22-4.27-0.06-8.56-0.07-12.84c0-1.14-0.19-2.39,1.62-2.22c1.66,0.15,1.06,1.43,1.08,2.27
		c0.07,3.57-0.06,7.14,0.07,10.7c0.11,3.31,0.8,6.42,4.98,6.7c3.38,0.23,5.98-2.58,6.2-6.78c0.19-3.56,0.05-7.13,0.09-10.7
		c0.01-0.92-0.33-2.1,1.25-2.19c1.82-0.11,1.61,1.16,1.61,2.29c0.01,3,0,5.99,0,8.99C398.33,193.71,398.39,193.71,398.45,193.71z"/>
	<path class="st1" d="M748.88,194.98c1.09,1.2,1.38,1.42,0.91,4.64c-0.5,3.42-3.68,4.31-6.57,4.89c-1.49,0.3-3.15,0.1-4.66-0.22
		c-1.04-0.21-2.89,0.09-2.55-2c0.42-2.62,1.96-0.65,2.86-0.53c1.42,0.19,2.81,0.55,4.22,0.17c1.6-0.43,2.88-1.35,3.25-3.05
		c0.35-1.63-0.68-2.74-1.9-3.52c-1.43-0.91-2.98-1.64-4.51-2.39c-2.7-1.33-4.3-3.29-3.73-6.45c0.59-3.23,3.06-4.24,5.89-4.65
		c0.96-0.14,2.06-0.17,2.93,0.17c1.22,0.49,3.92-0.47,3.28,2.07c-0.52,2.06-2.37,0.31-3.6,0.24c-2.23-0.14-4.5-0.14-5.44,2.28
		c-1.02,2.65,1.35,3.46,3.07,4.26C744.48,191.91,747.58,193.54,748.88,194.98z"/>
	<path class="st1" d="M308.54,204.6c-4.33,0-7.86-1.44-9.63-5.67c-1.86-4.46-1.88-8.99,1.02-12.99c2.67-3.69,6.59-4.79,11-3.82
		c1.07,0.23,3.02-0.23,2.67,1.81c-0.37,2.17-1.93,0.83-2.98,0.63c-3.4-0.65-6.34,0.17-8.23,3.11c-2.27,3.53-2.26,7.32-0.06,10.91
		c1.72,2.81,4.39,3.8,7.7,3.5c1.15-0.1,3.08-2.03,3.47,0.35c0.44,2.69-2.3,1.66-3.69,2.16C309.44,204.71,308.97,204.6,308.54,204.6z
		"/>
	<path class="st1" d="M363.24,204.62c-4.95,0.02-8.52-1.4-10.36-5.55c-2.11-4.75-2.04-9.52,1.37-13.66c2.9-3.52,6.9-4.21,11.26-3.23
		c1.15,0.26,2.46,0.42,2.04,2.03c-0.38,1.48-1.61,0.76-2.44,0.53c-3.74-1.03-6.92-0.15-8.92,3.15c-2.15,3.55-2.07,7.4,0.24,10.9
		c2.04,3.09,5.09,3.9,8.63,2.99c0.9-0.23,2-1.03,2.47,0.44c0.53,1.66-0.88,1.85-1.95,2.1C364.61,204.54,363.61,204.58,363.24,204.62
		z"/>
	<path class="st1" d="M654.99,193.16c0-1.71-0.05-3.43,0.01-5.14c0.07-1.83,0.14-3.54-2.54-3.19c-0.97,0.13-1.7-0.26-1.7-1.37
		c-0.01-1,0.79-1.14,1.48-1.03c2.84,0.47,2.95-1.25,2.75-3.29c-0.13-1.29,0.29-2.39,1.67-2.51c2.14-0.19,1.18,1.61,1.14,2.4
		c-0.13,2.34,0.16,3.94,3.12,3.4c0.8-0.15,1.85-0.11,1.76,1.17c-0.08,1.11-0.95,1.38-1.86,1.22c-3.14-0.58-3.03,1.4-2.97,3.54
		c0.08,3.14,0.03,6.28,0.02,9.42c0,2.56,0.51,4.67,3.8,4.21c0.75-0.1,1.34-0.29,1.51,0.74c0.19,1.16-0.56,1.44-1.42,1.72
		c-3.17,1.02-6.16-0.67-6.56-4.05c-0.28-2.39-0.05-4.83-0.05-7.25C655.1,193.16,655.04,193.16,654.99,193.16z"/>
	<path class="st1" d="M275.89,192.87c-0.01-2.84-0.02-5.69,0-8.53c0-0.78,0.2-2.39,0.88-1.79c2.76,2.42,4.62-0.53,6.88-0.73
		c1.16-0.1,2.3,0.06,2.41,1.66c0.11,1.52-0.84,1.44-1.92,1.46c-3.18,0.04-4.3,2.21-4.96,4.89c-0.97,3.94-0.41,7.93-0.56,11.89
		c-0.04,1.1,0.29,2.4-1.57,2.3c-1.68-0.09-1.12-1.35-1.14-2.2C275.86,198.85,275.89,195.86,275.89,192.87z"/>
	<path class="st1" d="M292.93,192.84c0,3-0.03,6,0.02,9c0.02,1.28-0.07,2.26-1.75,2.19c-1.48-0.06-1.44-1-1.44-2.05
		c0.02-5.72,0-11.43,0.02-17.15c0-1.08-0.33-2.36,1.5-2.41c1.81-0.05,1.65,1.13,1.65,2.28
		C292.93,187.41,292.93,190.12,292.93,192.84z"/>
	<path class="st1" d="M374.79,192.87c0,3,0.02,6-0.01,9c-0.01,0.94,0.27,2.07-1.3,2.15c-1.46,0.08-1.57-0.81-1.57-1.9
		c0.01-6,0.01-11.99,0.01-17.99c0-0.91,0.1-1.65,1.31-1.71c1.47-0.08,1.58,0.79,1.57,1.89
		C374.77,187.16,374.79,190.01,374.79,192.87z"/>
	<path class="st1" d="M529.06,192.75c0-2.86,0-5.71,0-8.57c0-0.88,0.02-1.68,1.25-1.77c1.42-0.1,1.63,0.68,1.63,1.83
		c-0.02,6-0.01,11.99-0.01,17.99c0,0.88-0.03,1.69-1.25,1.78c-1.42,0.1-1.63-0.7-1.62-1.84
		C529.08,199.03,529.06,195.89,529.06,192.75z"/>
	<path class="st1" d="M324.64,179.99c1.65-2.3,1.56-6.62,6.62-5.74C329.14,176.64,327.94,179.39,324.64,179.99z"/>
	<path class="st1" d="M530.4,172.99c1.85-0.06,1.47,1.13,1.53,2.04c0.07,1.13-0.22,1.91-1.6,1.82c-1.52-0.1-1.23-1.21-1.28-2.14
		C529,173.59,529.16,172.67,530.4,172.99z"/>
	<path class="st1" d="M374.82,174.34c-0.07,1.33,0.19,2.43-1.32,2.51c-1.39,0.08-1.64-0.73-1.58-1.85c0.05-0.92-0.3-2.02,1.3-2.05
		C374.55,172.93,374.98,173.5,374.82,174.34z"/>
	<path class="st1" d="M292.92,174.84c0.11,1.19-0.22,2-1.58,1.99c-1.37,0-1.56-0.85-1.59-1.98c-0.03-1.2,0.23-1.89,1.61-1.88
		C292.76,172.97,293.09,173.67,292.92,174.84z"/>
	<path class="st0" d="M149.93,188.91c-0.44,2.79-0.28,5.51-1.03,8.18c-2.47,8.79-8.7,13.92-17.21,13.95
		c-8.51,0.03-14.89-5.06-17.19-13.91c-1.42-5.47-1.45-11.08-0.16-16.55c2.41-10.25,9.34-15.2,19.67-14.42
		c7.93,0.6,14.53,7.73,15.55,16.88C149.77,185.03,149.81,187.04,149.93,188.91z"/>
</g>
</svg>
