<?xml version="1.0" encoding="UTF-8"?>
<svg id="Capa_1" data-name="Capa 1" xmlns="http://www.w3.org/2000/svg" viewBox="0 0 34.24 50">
  <defs>
    <style>
      .cls-1 {
        fill: #6986c3;
      }

      .cls-2 {
        fill: #1d1e1d;
      }

      .cls-3 {
        fill: #1d1d1c;
      }

      .cls-4 {
        fill: #1d1d1b;
      }
    </style>
  </defs>
  <path class="cls-1" d="M30.12,38.53c1.07-.03,2.15-.02,3.22-.09,1.05-.07,1.04,.37,.68,1.13-2.75,5.74-7.2,9.28-13.52,10.22C8.84,51.52,.18,42.34,0,32.09-.16,22.56,4.86,15.1,13.38,12.85c8.22-2.18,17,1.97,20.58,9.65,.54,1.16,.36,1.43-.92,1.44-1.07,0-2.14,0-3.22-.06-1.16-1.46-2.08-3.08-3.62-4.28-5.89-4.56-13.88-3.77-18.63,1.94-4.73,5.7-4.2,15.37,1.12,20.53,5.47,5.32,15.3,4.44,19.86-1.76,.47-.64,.81-1.41,1.58-1.79Z"/>
  <path class="cls-3" d="M30.12,38.53c-3.13,5.77-9.28,8.68-15.26,7.21-6.5-1.6-10.7-6.94-10.9-13.62-.16-5.45,1.46-10.02,5.95-13.37,6.2-4.62,15.84-2.62,19.66,4.08,.19,.34,.35,.66,.24,1.06-.4,0-1,0-1.73-.02-.99-.03-1.49-.04-1.89-.12-1.33-.25-2.18-1.12-2.44-1.35-5.18-4.31-12.97-1.8-15.17,4.71-1.92,5.69,.34,11.78,5.31,14.03,3.29,1.49,6.76,1.41,9.43-.94,2.19-1.92,4.37-1.85,6.81-1.67Z"/>
  <path class="cls-2" d="M11.43,31.12c0-5.73,4.86-9.07,9.5-6.54,3.09,1.69,4.33,6.36,2.68,10.14-1.36,3.12-4.58,4.53-7.89,3.46-2.66-.86-4.29-3.54-4.29-7.05Z"/>
  <path class="cls-4" d="M24.67,0c1.23,0,2.47,0,3.7,0,.3,0,.68-.09,.81,.32,.11,.37-.15,.58-.41,.79-2.94,2.41-5.8,4.94-8.84,7.2-1.49,1.11-3.43,.47-5.16,.38-.62-.03-.5-.69-.18-1.14,1.75-2.37,3.51-4.73,5.25-7.11C20.17,0,20.64,0,21.13,0c1.18,0,2.36,0,3.54,0h0Z"/>
  <path class="cls-1" d="M13.98,31.07c.07-3.33,2.03-5.28,4.68-4.66,1.43,.34,2.35,1.21,2.77,2.61,.39,1.32,.47,2.62,.07,3.96-.56,1.89-1.65,2.91-3.32,2.97-2.02,.08-3.15-.71-3.89-2.67-.27-.72-.32-1.46-.3-2.22Z"/>
</svg>